<svg width="320" height="240" viewBox="0 0 320 240" fill="none" xmlns="http://www.w3.org/2000/svg">
<g clip-path="url(#clip0_1721_385)">
<rect width="320" height="240" fill="white"/>
<g filter="url(#filter0_b_1721_385)">
<rect x="-19" width="1125" height="526" rx="20" fill="url(#paint0_linear_1721_385)"/>
</g>
<mask id="path-2-inside-1_1721_385" fill="white">
<path d="M6 26C6 14.9543 14.9543 6 26 6H293C304.046 6 313 14.9543 313 26V97.2986C313 108.344 304.046 117.299 293 117.299H26C14.9543 117.299 6 108.344 6 97.2986V26Z"/>
</mask>
<path d="M6 26C6 14.9543 14.9543 6 26 6H293C304.046 6 313 14.9543 313 26V97.2986C313 108.344 304.046 117.299 293 117.299H26C14.9543 117.299 6 108.344 6 97.2986V26Z" fill="url(#paint1_linear_1721_385)"/>
<path d="M26 8H293V4H26V8ZM311 26V97.2986H315V26H311ZM293 115.299H26V119.299H293V115.299ZM8 97.2986V26H4V97.2986H8ZM26 115.299C16.0589 115.299 8 107.24 8 97.2986H4C4 109.449 13.8497 119.299 26 119.299V115.299ZM311 97.2986C311 107.24 302.941 115.299 293 115.299V119.299C305.15 119.299 315 109.449 315 97.2986H311ZM293 8C302.941 8 311 16.0589 311 26H315C315 13.8497 305.15 4 293 4V8ZM26 4C13.8497 4 4 13.8497 4 26H8C8 16.0589 16.0589 8 26 8V4Z" fill="url(#paint2_linear_1721_385)" mask="url(#path-2-inside-1_1721_385)"/>
<mask id="path-4-inside-2_1721_385" fill="white">
<path d="M6 142.701C6 131.656 14.9543 122.701 26 122.701H293C304.046 122.701 313 131.656 313 142.701V214C313 225.046 304.046 234 293 234H26C14.9543 234 6 225.046 6 214V142.701Z"/>
</mask>
<path d="M6 142.701C6 131.656 14.9543 122.701 26 122.701H293C304.046 122.701 313 131.656 313 142.701V214C313 225.046 304.046 234 293 234H26C14.9543 234 6 225.046 6 214V142.701Z" fill="url(#paint3_linear_1721_385)"/>
<path d="M26 124.701H293V120.701H26V124.701ZM311 142.701V214H315V142.701H311ZM293 232H26V236H293V232ZM8 214V142.701H4V214H8ZM26 232C16.0589 232 8 223.941 8 214H4C4 226.15 13.8497 236 26 236V232ZM311 214C311 223.941 302.941 232 293 232V236C305.15 236 315 226.15 315 214H311ZM293 124.701C302.941 124.701 311 132.76 311 142.701H315C315 130.551 305.15 120.701 293 120.701V124.701ZM26 120.701C13.8497 120.701 4 130.551 4 142.701H8C8 132.76 16.0589 124.701 26 124.701V120.701Z" fill="url(#paint4_linear_1721_385)" mask="url(#path-4-inside-2_1721_385)"/>
<g clip-path="url(#clip1_1721_385)">
<path d="M285.702 18.7797C285.233 18.5796 284.85 18.4174 284.85 18.0867C284.85 17.8361 285.07 17.6528 285.501 17.6528C285.661 17.6528 285.79 17.6697 285.925 17.6929C285.996 17.7055 286.069 17.7139 286.131 17.7139C286.509 17.7139 286.722 17.5075 286.864 17.1137L286.921 16.9536C286.862 16.9325 286.246 16.6819 285.441 16.6819C284.163 16.6819 283.489 17.4359 283.489 18.2194C283.489 18.6133 283.622 18.8997 283.833 19.1251C284.103 19.4136 284.49 19.6053 284.852 19.7654C285.379 20.0034 285.854 20.1782 285.854 20.532C285.854 20.8438 285.503 21.0228 285.033 21.0228C284.39 21.0228 283.828 20.6858 283.755 20.6437L283.228 21.5535C283.322 21.6041 284.002 22.0001 285.123 22.0001C286.314 22.0001 287.219 21.3703 287.219 20.4036C287.219 19.4347 286.381 19.083 285.702 18.7797Z" fill="#F1FAEE"/>
<path d="M289.888 19.1926L292.017 16.6819H290.5L288.802 18.8482H288.777V16.6819H287.526V22.0001H287.601C288.141 22.0001 288.786 21.7596 288.786 20.8909V19.6713H288.811L290.541 21.9351H292.132L289.888 19.1926Z" fill="#F1FAEE"/>
<path d="M291.602 10.4561C291.142 10.5397 290.464 10.9399 290.464 11.6498C290.466 12.2941 291.013 12.683 291.013 13.5286C291.018 14.1639 290.654 14.5912 290.262 14.8286C290.419 14.815 290.595 14.806 290.785 14.806C291.186 14.806 291.428 14.8421 291.442 14.8444L293.499 12.4117C292.927 11.5865 292.261 10.9467 291.602 10.4561Z" fill="#F1FAEE"/>
<path d="M293.328 17.0261C293.586 16.6372 293.619 16.0178 293.642 15.387C293.666 14.7969 293.793 14.356 294.609 14.3515C294.79 14.3515 294.961 14.3741 295.275 14.3741C296.469 14.3696 297.25 13.9717 297.736 13.7117C296.744 13.1012 295.296 12.4795 293.499 12.4094C293.382 12.7282 292.472 15.1677 292.404 15.3666C292.413 15.3779 292.573 15.5498 292.772 15.8866C293.065 16.3479 293.223 16.739 293.328 17.0261Z" fill="#F1FAEE"/>
<path d="M288.988 15.0297C288.885 15.0297 288.833 14.9642 288.819 14.8489C288.805 14.7336 288.294 10.1983 288.216 9.51096C288.205 9.41148 288.179 9.22609 288.179 9.16052C288.176 9.05426 288.249 9 288.334 9C288.578 9 289.905 9.29843 291.313 10.2525C290.907 10.361 290.173 10.7703 290.175 11.6136C290.177 12.3597 290.733 12.7689 290.736 13.5172C290.74 14.7358 289.288 15.0297 288.988 15.0297Z" fill="white"/>
<path d="M293.448 17.3494C293.469 17.4059 293.49 17.4534 293.511 17.4873C293.544 17.5393 293.586 17.5642 293.638 17.5642C293.671 17.5642 293.71 17.5529 293.755 17.5325C293.863 17.485 298.156 15.5565 298.803 15.2694C298.897 15.2264 299.075 15.1496 299.134 15.1157C299.195 15.0817 299.223 15.0343 299.223 14.9845C299.223 14.9574 299.214 14.928 299.197 14.9031C299.115 14.7765 298.702 14.3515 298.006 13.8857C297.454 14.1797 296.594 14.6318 295.315 14.6364C295.001 14.6364 294.928 14.616 294.715 14.6183C294.091 14.6205 293.933 14.8783 293.91 15.405C293.908 15.5068 293.905 15.6402 293.898 15.7871C293.879 16.2597 293.821 16.913 293.448 17.3494Z" fill="white"/>
<path d="M306.451 19.6365C305.977 19.6365 305.731 19.9707 305.694 20.0229C305.574 19.7792 305.355 19.6365 305.065 19.6365C304.648 19.6365 304.411 19.8958 304.372 19.9393C304.354 19.8697 304.268 19.68 303.998 19.68C303.922 19.68 303.806 19.7061 303.798 19.7078C303.808 19.7618 303.86 20.0264 303.86 20.3919V22.0001H304.408V20.3605C304.419 20.3501 304.625 20.1273 304.872 20.1273C305.117 20.1273 305.241 20.3257 305.241 20.5955V22.0001H305.793V20.3605C305.803 20.3501 306.004 20.1273 306.256 20.1273C306.506 20.1273 306.622 20.3257 306.622 20.5955V22.0001H307.176V20.5033C307.176 19.9776 306.898 19.6365 306.449 19.6365H306.451Z" fill="white"/>
<path d="M300.352 21.5352C299.988 21.5352 299.729 21.2253 299.729 20.8217C299.729 20.3704 300.025 20.1031 300.352 20.1031C300.529 20.1031 300.603 20.161 300.719 20.161C300.844 20.161 300.91 20.0946 300.973 19.9651C301.007 19.8936 301.027 19.8527 301.027 19.8527C301 19.834 300.73 19.6365 300.27 19.6365C299.596 19.6365 299.193 20.1559 299.193 20.82C299.193 21.5454 299.655 22.0001 300.27 22.0001C300.717 22.0001 300.988 21.8043 301.035 21.7668L300.85 21.3717C300.809 21.4007 300.618 21.5335 300.35 21.5335L300.352 21.5352Z" fill="white"/>
<path fill-rule="evenodd" clip-rule="evenodd" d="M295.202 20.8064V20.9767H293.875C293.885 21.2066 294.022 21.5522 294.419 21.5522C294.65 21.5522 294.671 21.4722 294.842 21.4722C294.927 21.4722 295.005 21.5131 295.072 21.6357C295.084 21.6595 295.132 21.7447 295.132 21.7447C295.101 21.7651 294.852 22.0001 294.371 22.0001C293.765 22.0001 293.36 21.5557 293.36 20.82C293.36 20.0843 293.778 19.6365 294.273 19.6365C294.838 19.6365 295.202 20.1014 295.202 20.8064ZM294.666 20.568C294.662 20.3159 294.521 20.069 294.266 20.069C294.038 20.069 293.874 20.3091 293.874 20.568H294.666Z" fill="white"/>
<path d="M296.06 21.3657V19.1875C296.06 18.9404 295.89 18.75 295.626 18.75H295.509V21.5782C295.509 21.8379 295.677 22 295.965 22C296.324 22 296.43 21.7545 296.43 21.5231C296.415 21.531 296.34 21.5609 296.264 21.5609C296.136 21.5609 296.06 21.4885 296.06 21.3657Z" fill="white"/>
<path d="M292.756 21.1681V19.9545H293.205L293.36 19.4841H292.756V18.75C292.756 18.75 292.709 18.75 292.707 18.75C292.468 18.75 292.221 18.868 292.221 19.4786V19.4841H291.825V19.9545H292.221V21.3839C292.221 21.7879 292.427 22 292.718 22C292.954 22 293.258 21.917 293.258 21.3729C293.239 21.3858 293.125 21.4706 293 21.4706C292.826 21.4706 292.758 21.347 292.758 21.1681H292.756Z" fill="white"/>
<path fill-rule="evenodd" clip-rule="evenodd" d="M298.886 20.8064V20.9767H297.117C297.129 21.2066 297.313 21.5522 297.841 21.5522C298.149 21.5522 298.178 21.4722 298.404 21.4722C298.519 21.4722 298.623 21.5131 298.712 21.6357C298.729 21.6595 298.792 21.7447 298.792 21.7447C298.751 21.7651 298.419 22.0001 297.778 22.0001C296.968 22.0001 296.43 21.5557 296.43 20.82C296.43 20.0843 296.987 19.6365 297.648 19.6365C298.4 19.6365 298.886 20.1014 298.886 20.8064ZM298.17 20.568C298.166 20.3159 297.978 20.069 297.635 20.069C297.331 20.069 297.115 20.3091 297.115 20.568H298.17Z" fill="white"/>
<path fill-rule="evenodd" clip-rule="evenodd" d="M302.264 22.0001C301.585 22.0001 301.035 21.4722 301.035 20.8183C301.035 20.1644 301.585 19.6365 302.264 19.6365C302.942 19.6365 303.491 20.1644 303.491 20.8183C303.491 21.4722 302.942 22.0001 302.264 22.0001ZM302.868 20.8183C302.868 20.4096 302.597 20.0792 302.264 20.0792C301.929 20.0792 301.659 20.4096 301.659 20.8183C301.659 21.227 301.929 21.5574 302.264 21.5574C302.597 21.5574 302.868 21.227 302.868 20.8183Z" fill="white"/>
</g>
<g clip-path="url(#clip2_1721_385)">
<path d="M288.702 137.78C288.233 137.58 287.85 137.417 287.85 137.087C287.85 136.836 288.07 136.653 288.501 136.653C288.661 136.653 288.79 136.67 288.925 136.693C288.996 136.706 289.069 136.714 289.131 136.714C289.509 136.714 289.722 136.508 289.864 136.114L289.921 135.954C289.862 135.933 289.246 135.682 288.441 135.682C287.163 135.682 286.489 136.436 286.489 137.219C286.489 137.613 286.622 137.9 286.833 138.125C287.103 138.414 287.49 138.605 287.852 138.765C288.379 139.003 288.854 139.178 288.854 139.532C288.854 139.844 288.503 140.023 288.033 140.023C287.39 140.023 286.828 139.686 286.755 139.644L286.228 140.554C286.322 140.604 287.002 141 288.123 141C289.314 141 290.219 140.37 290.219 139.404C290.219 138.435 289.381 138.083 288.702 137.78Z" fill="#F1FAEE"/>
<path d="M292.888 138.193L295.017 135.682H293.5L291.802 137.848H291.777V135.682H290.526V141H290.601C291.141 141 291.786 140.76 291.786 139.891V138.671H291.811L293.541 140.935H295.132L292.888 138.193Z" fill="#F1FAEE"/>
<path d="M294.602 129.456C294.142 129.54 293.464 129.94 293.464 130.65C293.466 131.294 294.013 131.683 294.013 132.529C294.018 133.164 293.654 133.591 293.262 133.829C293.419 133.815 293.595 133.806 293.785 133.806C294.186 133.806 294.428 133.842 294.442 133.844L296.499 131.412C295.927 130.586 295.261 129.947 294.602 129.456Z" fill="#F1FAEE"/>
<path d="M296.328 136.026C296.586 135.637 296.619 135.018 296.642 134.387C296.666 133.797 296.793 133.356 297.609 133.352C297.79 133.352 297.961 133.374 298.275 133.374C299.469 133.37 300.25 132.972 300.736 132.712C299.744 132.101 298.296 131.48 296.499 131.409C296.382 131.728 295.472 134.168 295.404 134.367C295.413 134.378 295.573 134.55 295.772 134.887C296.065 135.348 296.223 135.739 296.328 136.026Z" fill="#F1FAEE"/>
<path d="M291.988 134.03C291.885 134.03 291.833 133.964 291.819 133.849C291.805 133.734 291.294 129.198 291.216 128.511C291.205 128.411 291.179 128.226 291.179 128.161C291.176 128.054 291.249 128 291.334 128C291.578 128 292.905 128.298 294.313 129.253C293.907 129.361 293.173 129.77 293.175 130.614C293.177 131.36 293.733 131.769 293.736 132.517C293.74 133.736 292.288 134.03 291.988 134.03Z" fill="white"/>
<path d="M296.448 136.349C296.469 136.406 296.49 136.453 296.511 136.487C296.544 136.539 296.586 136.564 296.638 136.564C296.671 136.564 296.71 136.553 296.755 136.533C296.863 136.485 301.156 134.557 301.803 134.269C301.897 134.226 302.075 134.15 302.134 134.116C302.195 134.082 302.223 134.034 302.223 133.985C302.223 133.957 302.214 133.928 302.197 133.903C302.115 133.777 301.702 133.351 301.006 132.886C300.454 133.18 299.594 133.632 298.315 133.636C298.001 133.636 297.928 133.616 297.715 133.618C297.091 133.621 296.933 133.878 296.91 134.405C296.908 134.507 296.905 134.64 296.898 134.787C296.879 135.26 296.821 135.913 296.448 136.349Z" fill="white"/>
<path d="M309.451 138.636C308.977 138.636 308.731 138.971 308.694 139.023C308.574 138.779 308.355 138.636 308.065 138.636C307.648 138.636 307.411 138.896 307.372 138.939C307.354 138.87 307.268 138.68 306.998 138.68C306.922 138.68 306.806 138.706 306.798 138.708C306.808 138.762 306.86 139.026 306.86 139.392V141H307.408V139.361C307.419 139.35 307.625 139.127 307.872 139.127C308.117 139.127 308.241 139.326 308.241 139.596V141H308.793V139.361C308.803 139.35 309.004 139.127 309.256 139.127C309.506 139.127 309.622 139.326 309.622 139.596V141H310.176V139.503C310.176 138.978 309.898 138.636 309.449 138.636H309.451Z" fill="white"/>
<path d="M303.352 140.535C302.988 140.535 302.729 140.225 302.729 139.822C302.729 139.37 303.025 139.103 303.352 139.103C303.529 139.103 303.603 139.161 303.719 139.161C303.844 139.161 303.91 139.095 303.973 138.965C304.007 138.894 304.027 138.853 304.027 138.853C304 138.834 303.73 138.636 303.27 138.636C302.596 138.636 302.193 139.156 302.193 139.82C302.193 140.545 302.655 141 303.27 141C303.717 141 303.988 140.804 304.035 140.767L303.85 140.372C303.809 140.401 303.618 140.534 303.35 140.534L303.352 140.535Z" fill="white"/>
<path fill-rule="evenodd" clip-rule="evenodd" d="M298.202 139.806V139.977H296.875C296.885 140.207 297.022 140.552 297.419 140.552C297.65 140.552 297.671 140.472 297.842 140.472C297.927 140.472 298.005 140.513 298.072 140.636C298.084 140.66 298.132 140.745 298.132 140.745C298.101 140.765 297.852 141 297.371 141C296.765 141 296.36 140.556 296.36 139.82C296.36 139.084 296.778 138.636 297.273 138.636C297.838 138.636 298.202 139.101 298.202 139.806ZM297.666 139.568C297.662 139.316 297.521 139.069 297.266 139.069C297.038 139.069 296.874 139.309 296.874 139.568H297.666Z" fill="white"/>
<path d="M299.06 140.366V138.188C299.06 137.94 298.89 137.75 298.626 137.75H298.509V140.578C298.509 140.838 298.677 141 298.965 141C299.324 141 299.43 140.754 299.43 140.523C299.415 140.531 299.34 140.561 299.264 140.561C299.136 140.561 299.06 140.488 299.06 140.366Z" fill="white"/>
<path d="M295.756 140.168V138.954H296.205L296.36 138.484H295.756V137.75C295.756 137.75 295.709 137.75 295.707 137.75C295.468 137.75 295.221 137.868 295.221 138.479V138.484H294.825V138.954H295.221V140.384C295.221 140.788 295.427 141 295.718 141C295.954 141 296.258 140.917 296.258 140.373C296.239 140.386 296.125 140.471 296 140.471C295.826 140.471 295.758 140.347 295.758 140.168H295.756Z" fill="white"/>
<path fill-rule="evenodd" clip-rule="evenodd" d="M301.886 139.806V139.977H300.117C300.129 140.207 300.313 140.552 300.841 140.552C301.149 140.552 301.178 140.472 301.404 140.472C301.519 140.472 301.623 140.513 301.712 140.636C301.729 140.66 301.792 140.745 301.792 140.745C301.751 140.765 301.419 141 300.778 141C299.968 141 299.43 140.556 299.43 139.82C299.43 139.084 299.987 138.636 300.648 138.636C301.4 138.636 301.886 139.101 301.886 139.806ZM301.17 139.568C301.166 139.316 300.978 139.069 300.635 139.069C300.331 139.069 300.115 139.309 300.115 139.568H301.17Z" fill="white"/>
<path fill-rule="evenodd" clip-rule="evenodd" d="M305.264 141C304.585 141 304.035 140.472 304.035 139.818C304.035 139.164 304.585 138.636 305.264 138.636C305.942 138.636 306.491 139.164 306.491 139.818C306.491 140.472 305.942 141 305.264 141ZM305.868 139.818C305.868 139.41 305.597 139.079 305.264 139.079C304.929 139.079 304.659 139.41 304.659 139.818C304.659 140.227 304.929 140.557 305.264 140.557C305.597 140.557 305.868 140.227 305.868 139.818Z" fill="white"/>
</g>
</g>
<defs>
<filter id="filter0_b_1721_385" x="-139" y="-120" width="1365" height="766" filterUnits="userSpaceOnUse" color-interpolation-filters="sRGB">
<feFlood flood-opacity="0" result="BackgroundImageFix"/>
<feGaussianBlur in="BackgroundImageFix" stdDeviation="60"/>
<feComposite in2="SourceAlpha" operator="in" result="effect1_backgroundBlur_1721_385"/>
<feBlend mode="normal" in="SourceGraphic" in2="effect1_backgroundBlur_1721_385" result="shape"/>
</filter>
<linearGradient id="paint0_linear_1721_385" x1="292.786" y1="44.343" x2="605.585" y2="550.144" gradientUnits="userSpaceOnUse">
<stop stop-color="#060B28" stop-opacity="0.94"/>
<stop offset="1" stop-color="#0A0E23" stop-opacity="0.49"/>
</linearGradient>
<linearGradient id="paint1_linear_1721_385" x1="9.90361" y1="26.139" x2="63.3172" y2="48.8388" gradientUnits="userSpaceOnUse">
<stop offset="0.0469861" stop-color="white" stop-opacity="0"/>
<stop offset="1" stop-color="white" stop-opacity="0.1"/>
</linearGradient>
<linearGradient id="paint2_linear_1721_385" x1="91.2498" y1="50.1413" x2="-58.8207" y2="-81.0407" gradientUnits="userSpaceOnUse">
<stop stop-color="white" stop-opacity="0"/>
<stop offset="1" stop-color="white"/>
</linearGradient>
<linearGradient id="paint3_linear_1721_385" x1="9.90361" y1="142.84" x2="63.3172" y2="165.54" gradientUnits="userSpaceOnUse">
<stop offset="0.0469861" stop-color="white" stop-opacity="0"/>
<stop offset="1" stop-color="white" stop-opacity="0.1"/>
</linearGradient>
<linearGradient id="paint4_linear_1721_385" x1="91.2498" y1="166.843" x2="-58.8207" y2="35.6607" gradientUnits="userSpaceOnUse">
<stop stop-color="white" stop-opacity="0"/>
<stop offset="1" stop-color="white"/>
</linearGradient>
<clipPath id="clip0_1721_385">
<rect width="320" height="240" fill="white"/>
</clipPath>
<clipPath id="clip1_1721_385">
<rect width="35" height="13" fill="white" transform="translate(282 9)"/>
</clipPath>
<clipPath id="clip2_1721_385">
<rect width="35" height="13" fill="white" transform="translate(285 128)"/>
</clipPath>
</defs>
</svg>
