<svg width="1280" height="720" viewBox="0 0 1280 720" fill="none" xmlns="http://www.w3.org/2000/svg">
<rect width="1280" height="720" fill="#010518"/>
<rect x="19" y="20" width="1243" height="679" rx="24" fill="#171C31"/>
<path fill-rule="evenodd" clip-rule="evenodd" d="M49 31C38.5066 31 30 39.5066 30 50V670C30 680.493 38.5066 689 49 689H91C101.493 689 110 680.493 110 670V497.067C110 491.864 105.202 488 100 488C72.3858 488 50 465.614 50 438C50 410.386 72.3858 388 100 388C105.202 388 110 384.136 110 378.933V50C110 39.5066 101.493 31 91 31H49Z" fill="#010518"/>
<circle cx="97" cy="439" r="40" fill="#010518"/>
<path d="M75.4613 265.883C74.805 265.64 76.1234 266.126 75.4613 265.883V265.883Z" fill="black"/>
<path d="M75.4609 265.883C74.6699 265.59 73.8145 265.571 73.0234 265.278C72.7832 265.19 72.3086 265.084 72.209 264.791C72.1152 264.504 72.1152 264.168 72.0977 263.868C72.0859 263.631 72.0801 263.394 72.0801 263.157C72.0801 263.001 72.4551 262.671 72.5371 262.527C72.8535 261.966 72.8828 261.211 72.9414 260.575C73.4512 260.725 73.5156 259.72 73.6035 259.415C73.668 259.203 74.0605 257.743 73.4512 257.943C73.5977 257.668 73.6562 257.331 73.6973 257.026C73.8145 256.227 73.8613 255.354 73.6328 254.574C73.1582 252.953 71.6992 252.042 70.1582 251.992C68.5938 251.936 67.0234 252.734 66.4375 254.35C66.1562 255.136 66.1797 255.99 66.2734 256.814C66.3145 257.188 66.373 257.606 66.5488 257.943C65.9805 257.762 66.2852 259.047 66.3496 259.271C66.4434 259.589 66.5254 260.731 67.0586 260.575C67.1055 261.08 67.1582 261.598 67.2871 262.09C67.375 262.421 67.5566 262.702 67.7676 262.957C67.873 263.082 67.9258 263.095 67.9199 263.257C67.9141 263.743 67.9258 264.267 67.8086 264.741C67.6914 265.215 66.7129 265.415 66.3203 265.502C65.2656 265.733 64.293 265.839 63.4141 266.538C62.3887 267.342 61.8555 268.596 61.8555 269.95H78.1445C78.1445 268.11 77.1016 266.488 75.4609 265.883Z" fill="url(#paint0_linear_46_172)"/>
<path d="M63.3965 265.116L63.4902 265.066C63.4727 265.072 63.4551 265.084 63.4434 265.091C63.4258 265.097 63.4141 265.103 63.3965 265.116Z" fill="black"/>
<path d="M63.3965 265.116C63.1973 265.222 62.957 265.353 63.4434 265.091L63.4902 265.066C63.8887 264.866 64.3164 264.816 64.7441 264.773C64.9082 264.754 64.9844 264.635 64.8613 264.467C64.627 264.149 63.8184 264.086 63.4785 263.943C63.2676 263.856 63.209 263.775 63.1914 263.525C63.1855 263.413 63.127 262.914 63.209 262.833C63.2676 262.77 63.6367 262.795 63.7188 262.783C64.0527 262.739 64.3926 262.664 64.709 262.533C64.8438 262.477 64.9727 262.409 65.0898 262.321C65.2305 262.209 64.9844 261.935 64.9199 261.785C64.7207 261.317 64.6328 260.806 64.6035 260.294C64.5449 259.29 64.6914 258.279 64.5156 257.281C64.252 255.753 63.1445 254.986 61.7324 254.986C60.8594 254.986 59.998 255.304 59.5117 256.115C58.9727 257.007 59.002 258.117 59.0313 259.134C59.0488 259.714 59.0723 260.3 58.9961 260.88C58.9609 261.13 58.9082 261.373 58.8262 261.61C58.7617 261.791 58.4336 262.24 58.5625 262.334C59.0488 262.702 59.8691 262.826 60.4551 262.777C60.4727 263.082 60.5254 263.475 60.4199 263.762C60.2559 264.211 59.0312 264.33 58.6621 264.461C57.6367 264.822 56.875 265.708 56.875 266.956H61.5332C61.6094 266.956 61.9023 266.376 61.9844 266.282C62.3828 265.814 62.8691 265.409 63.3965 265.116Z" fill="url(#paint1_linear_46_172)"/>
<path d="M81.3261 264.454C80.8514 264.292 79.9374 264.242 79.5975 263.806C79.4276 263.587 79.5214 263.032 79.5389 262.77C79.7968 262.795 80.078 262.752 80.3417 262.714C80.5819 262.677 80.8163 262.627 81.0448 262.54C81.1503 262.496 81.2557 262.452 81.3554 262.39C81.5839 262.246 81.4784 262.221 81.3612 262.009C80.7225 260.868 81.0096 259.421 80.9804 258.167C80.9569 257.126 80.6991 255.984 79.8085 255.398C79.0057 254.868 77.8163 254.849 76.955 255.223C74.4706 256.283 75.9354 259.789 75.0858 261.797C74.9393 262.134 74.7284 262.253 75.0975 262.452C75.3026 262.565 75.5253 262.639 75.7479 262.696C76.0878 262.783 76.4393 262.833 76.7909 262.845C76.8495 262.845 76.8085 263.631 76.7909 263.712C76.7264 264.018 76.0995 264.105 75.8651 264.174C75.6249 264.242 75.2264 264.261 75.1093 264.529C74.9335 264.929 75.6893 264.829 75.8768 264.866C76.4804 264.985 77.0136 265.34 77.4823 265.746C77.8339 266.051 78.3085 266.463 78.4374 266.962H83.1366C83.1249 265.708 82.3573 264.816 81.3261 264.454Z" fill="url(#paint2_linear_46_172)"/>
<path d="M49.049 276.273H47.4936C47.4652 276.072 47.4072 275.893 47.3196 275.737C47.232 275.579 47.1196 275.444 46.9822 275.332C46.8449 275.221 46.6863 275.136 46.5064 275.077C46.3288 275.018 46.1359 274.988 45.9276 274.988C45.5511 274.988 45.2232 275.081 44.9439 275.268C44.6645 275.453 44.4479 275.723 44.294 276.078C44.1402 276.431 44.0632 276.859 44.0632 277.364C44.0632 277.882 44.1402 278.318 44.294 278.67C44.4503 279.023 44.6681 279.29 44.9474 279.469C45.2268 279.649 45.55 279.739 45.9169 279.739C46.1229 279.739 46.3134 279.712 46.4886 279.658C46.6662 279.603 46.8236 279.524 46.9609 279.42C47.0982 279.313 47.2119 279.184 47.3018 279.033C47.3942 278.881 47.4581 278.708 47.4936 278.514L49.049 278.521C49.0088 278.855 48.9081 279.177 48.7472 279.487C48.5885 279.795 48.3743 280.071 48.1044 280.315C47.8369 280.556 47.5173 280.748 47.1456 280.89C46.7763 281.03 46.3584 281.099 45.892 281.099C45.2434 281.099 44.6634 280.953 44.152 280.659C43.643 280.366 43.2405 279.941 42.9446 279.384C42.651 278.828 42.5043 278.154 42.5043 277.364C42.5043 276.571 42.6534 275.896 42.9517 275.339C43.25 274.783 43.6548 274.359 44.1662 274.068C44.6776 273.775 45.2528 273.628 45.892 273.628C46.3134 273.628 46.7041 273.687 47.0639 273.805C47.4261 273.924 47.7469 274.097 48.0263 274.324C48.3056 274.549 48.5329 274.825 48.7081 275.151C48.8857 275.478 48.9993 275.852 49.049 276.273ZM53.6211 278.678V275.545H55.1339V281H53.6815V280.009H53.6246C53.5015 280.329 53.2968 280.586 53.0103 280.78C52.7262 280.974 52.3794 281.071 51.9698 281.071C51.6052 281.071 51.2844 280.988 51.0075 280.822C50.7305 280.657 50.5138 280.421 50.3576 280.116C50.2037 279.81 50.1256 279.445 50.1232 279.018V275.545H51.636V278.749C51.6384 279.071 51.7248 279.325 51.8952 279.512C52.0657 279.699 52.2942 279.793 52.5806 279.793C52.7629 279.793 52.9334 279.751 53.092 279.668C53.2506 279.583 53.3784 279.458 53.4755 279.292C53.5749 279.126 53.6235 278.921 53.6211 278.678ZM60.8823 277.101L59.4973 277.186C59.4737 277.068 59.4228 276.961 59.3446 276.866C59.2665 276.769 59.1635 276.692 59.0357 276.636C58.9102 276.576 58.7599 276.547 58.5847 276.547C58.3503 276.547 58.1526 276.597 57.9917 276.696C57.8307 276.793 57.7502 276.923 57.7502 277.087C57.7502 277.217 57.8023 277.327 57.9064 277.417C58.0106 277.507 58.1893 277.579 58.4426 277.634L59.4299 277.832C59.9602 277.941 60.3555 278.116 60.6159 278.358C60.8764 278.599 61.0066 278.917 61.0066 279.31C61.0066 279.667 60.9012 279.981 60.6905 280.251C60.4822 280.521 60.1957 280.731 59.8311 280.883C59.4689 281.032 59.0511 281.107 58.5776 281.107C57.8555 281.107 57.2802 280.956 56.8517 280.656C56.4256 280.353 56.1758 279.941 56.1025 279.42L57.5904 279.342C57.6354 279.562 57.7443 279.73 57.9171 279.846C58.0899 279.96 58.3113 280.016 58.5811 280.016C58.8463 280.016 59.0594 279.965 59.2203 279.864C59.3837 279.759 59.4666 279.626 59.4689 279.462C59.4666 279.325 59.4086 279.213 59.2949 279.125C59.1813 279.035 59.0061 278.966 58.7694 278.919L57.8248 278.731C57.2921 278.624 56.8955 278.44 56.6351 278.177C56.3771 277.914 56.248 277.579 56.248 277.172C56.248 276.821 56.3427 276.52 56.5321 276.266C56.7239 276.013 56.9926 275.818 57.3382 275.68C57.6863 275.543 58.0935 275.474 58.5598 275.474C59.2488 275.474 59.7909 275.62 60.1863 275.911C60.584 276.202 60.816 276.599 60.8823 277.101ZM64.8604 275.545V276.682H61.5756V275.545H64.8604ZM62.3214 274.239H63.8342V279.324C63.8342 279.464 63.8555 279.572 63.8981 279.651C63.9407 279.726 63.9999 279.78 64.0756 279.81C64.1538 279.841 64.2437 279.857 64.3455 279.857C64.4165 279.857 64.4876 279.851 64.5586 279.839C64.6296 279.825 64.6841 279.814 64.7219 279.807L64.9599 280.933C64.8841 280.956 64.7776 280.983 64.6403 281.014C64.503 281.047 64.3361 281.067 64.1396 281.075C63.775 281.089 63.4554 281.04 63.1808 280.929C62.9085 280.818 62.6966 280.645 62.5451 280.411C62.3936 280.176 62.319 279.88 62.3214 279.523V274.239ZM68.2518 281.107C67.7002 281.107 67.2231 280.989 66.8207 280.755C66.4206 280.518 66.1116 280.189 65.8938 279.768C65.676 279.344 65.5671 278.853 65.5671 278.294C65.5671 277.731 65.676 277.238 65.8938 276.817C66.1116 276.393 66.4206 276.064 66.8207 275.83C67.2231 275.593 67.7002 275.474 68.2518 275.474C68.8034 275.474 69.2792 275.593 69.6793 275.83C70.0818 276.064 70.3919 276.393 70.6097 276.817C70.8275 277.238 70.9364 277.731 70.9364 278.294C70.9364 278.853 70.8275 279.344 70.6097 279.768C70.3919 280.189 70.0818 280.518 69.6793 280.755C69.2792 280.989 68.8034 281.107 68.2518 281.107ZM68.2589 279.935C68.5098 279.935 68.7193 279.864 68.8874 279.722C69.0555 279.577 69.1822 279.381 69.2674 279.132C69.355 278.884 69.3988 278.601 69.3988 278.283C69.3988 277.966 69.355 277.683 69.2674 277.435C69.1822 277.186 69.0555 276.99 68.8874 276.845C68.7193 276.701 68.5098 276.629 68.2589 276.629C68.0056 276.629 67.7925 276.701 67.6197 276.845C67.4492 276.99 67.3202 277.186 67.2326 277.435C67.1474 277.683 67.1048 277.966 67.1048 278.283C67.1048 278.601 67.1474 278.884 67.2326 279.132C67.3202 279.381 67.4492 279.577 67.6197 279.722C67.7925 279.864 68.0056 279.935 68.2589 279.935ZM71.9201 281V275.545H73.3619V276.508H73.4258C73.5394 276.188 73.7288 275.936 73.994 275.751C74.2591 275.567 74.5763 275.474 74.9457 275.474C75.3197 275.474 75.6381 275.568 75.9009 275.755C76.1637 275.94 76.3389 276.191 76.4265 276.508H76.4833C76.5946 276.195 76.7958 275.946 77.087 275.759C77.3806 275.569 77.7274 275.474 78.1275 275.474C78.6365 275.474 79.0496 275.637 79.3668 275.961C79.6864 276.283 79.8462 276.74 79.8462 277.332V281H78.337V277.63C78.337 277.327 78.2565 277.1 78.0955 276.948C77.9345 276.797 77.7333 276.721 77.4918 276.721C77.2172 276.721 77.003 276.808 76.8491 276.984C76.6952 277.156 76.6183 277.385 76.6183 277.669V281H75.1516V277.598C75.1516 277.33 75.0747 277.117 74.9208 276.959C74.7693 276.8 74.5692 276.721 74.3207 276.721C74.1526 276.721 74.0011 276.763 73.8661 276.849C73.7335 276.932 73.6282 277.049 73.5501 277.2C73.4719 277.349 73.4329 277.525 73.4329 277.726V281H71.9201ZM83.527 281.107C82.9659 281.107 82.483 280.993 82.0781 280.766C81.6757 280.536 81.3655 280.212 81.1477 279.793C80.9299 279.371 80.821 278.873 80.821 278.298C80.821 277.737 80.9299 277.244 81.1477 276.82C81.3655 276.397 81.6721 276.066 82.0675 275.83C82.4652 275.593 82.9316 275.474 83.4666 275.474C83.8265 275.474 84.1615 275.532 84.4716 275.648C84.7841 275.762 85.0563 275.934 85.2884 276.163C85.5227 276.393 85.705 276.682 85.8352 277.03C85.9654 277.375 86.0305 277.78 86.0305 278.244V278.66H81.4247V277.722H84.6065C84.6065 277.504 84.5592 277.312 84.4645 277.143C84.3698 276.975 84.2384 276.844 84.0703 276.749C83.9046 276.652 83.7116 276.604 83.4915 276.604C83.2618 276.604 83.0582 276.657 82.8807 276.763C82.7055 276.868 82.5682 277.009 82.4688 277.186C82.3693 277.361 82.3184 277.557 82.3161 277.772V278.663C82.3161 278.933 82.3658 279.166 82.4652 279.363C82.567 279.559 82.7102 279.711 82.8949 279.817C83.0795 279.924 83.2985 279.977 83.5518 279.977C83.7199 279.977 83.8738 279.954 84.0135 279.906C84.1532 279.859 84.2727 279.788 84.3722 279.693C84.4716 279.598 84.5473 279.482 84.5994 279.345L85.9986 279.438C85.9276 279.774 85.782 280.067 85.5618 280.318C85.344 280.567 85.0623 280.761 84.7166 280.901C84.3733 281.038 83.9768 281.107 83.527 281.107ZM87.0178 281V275.545H88.4844V276.497H88.5412C88.6406 276.159 88.8075 275.903 89.0419 275.73C89.2763 275.555 89.5462 275.467 89.8516 275.467C89.9273 275.467 90.009 275.472 90.0966 275.482C90.1842 275.491 90.2611 275.504 90.3274 275.521V276.863C90.2564 276.842 90.1581 276.823 90.0327 276.806C89.9072 276.79 89.7924 276.781 89.6882 276.781C89.4657 276.781 89.2668 276.83 89.0916 276.927C88.9188 277.022 88.7815 277.154 88.6797 277.325C88.5803 277.495 88.5305 277.692 88.5305 277.914V281H87.0178ZM95.6479 277.101L94.263 277.186C94.2393 277.068 94.1884 276.961 94.1103 276.866C94.0321 276.769 93.9292 276.692 93.8013 276.636C93.6758 276.576 93.5255 276.547 93.3503 276.547C93.1159 276.547 92.9183 276.597 92.7573 276.696C92.5963 276.793 92.5158 276.923 92.5158 277.087C92.5158 277.217 92.5679 277.327 92.6721 277.417C92.7762 277.507 92.955 277.579 93.2083 277.634L94.1955 277.832C94.7258 277.941 95.1212 278.116 95.3816 278.358C95.642 278.599 95.7722 278.917 95.7722 279.31C95.7722 279.667 95.6668 279.981 95.4561 280.251C95.2478 280.521 94.9614 280.731 94.5968 280.883C94.2346 281.032 93.8167 281.107 93.3432 281.107C92.6212 281.107 92.0459 280.956 91.6174 280.656C91.1912 280.353 90.9415 279.941 90.8681 279.42L92.356 279.342C92.401 279.562 92.5099 279.73 92.6827 279.846C92.8555 279.96 93.0769 280.016 93.3468 280.016C93.6119 280.016 93.825 279.965 93.986 279.864C94.1493 279.759 94.2322 279.626 94.2346 279.462C94.2322 279.325 94.1742 279.213 94.0605 279.125C93.9469 279.035 93.7717 278.966 93.535 278.919L92.5904 278.731C92.0577 278.624 91.6612 278.44 91.4007 278.177C91.1427 277.914 91.0137 277.579 91.0137 277.172C91.0137 276.821 91.1084 276.52 91.2978 276.266C91.4895 276.013 91.7582 275.818 92.1039 275.68C92.4519 275.543 92.8591 275.474 93.3255 275.474C94.0144 275.474 94.5565 275.62 94.9519 275.911C95.3496 276.202 95.5816 276.599 95.6479 277.101Z" fill="white"/>
<path d="M77.3171 337.659C78.6341 337.183 79.878 336.561 81.0854 335.829C79.2195 333.817 76.8415 332.28 74.1341 331.512C75.4512 332.939 76.5488 335.061 77.3171 337.659ZM81.0854 355.988C79.2195 358.037 76.8049 359.537 74.0976 360.341C75.4512 358.878 76.5488 356.756 77.2805 354.159C78.6341 354.634 79.9146 355.256 81.0854 355.988ZM78.4146 346.659H85C84.8537 349.732 83.7927 352.549 82.0732 354.854C80.6829 353.976 79.2195 353.28 77.7195 352.732C78.122 350.866 78.3415 348.817 78.4146 346.659ZM65.8659 360.341C63.1585 359.573 60.7439 358.037 58.9146 356.024C60.1219 355.293 61.3659 354.671 62.6829 354.195C63.4512 356.793 64.5488 358.915 65.8659 360.341ZM58.9146 335.866C60.7805 333.817 63.1951 332.317 65.9024 331.512C64.5488 332.976 63.4512 335.098 62.7195 337.695C61.3659 337.22 60.0854 336.598 58.9146 335.866ZM77.6829 339.085C79.1829 338.537 80.6463 337.841 82.0366 336.963C83.7561 339.268 84.8171 342.122 85 345.195H78.4146C78.3415 343 78.122 340.951 77.6829 339.085ZM61.5854 345.195H55C55.1463 342.122 56.2073 339.305 57.9268 337C59.3171 337.878 60.7805 338.573 62.2805 339.122C61.878 340.988 61.6585 343.037 61.5854 345.195ZM62.3171 352.768C60.8171 353.317 59.3537 354.012 57.9634 354.89C56.2073 352.585 55.1463 349.732 55 346.659H61.5854C61.6585 348.854 61.878 350.902 62.3171 352.768ZM70.7317 360.854V352.878C72.4878 352.951 74.2439 353.207 75.9268 353.683C74.7927 357.561 72.8902 360.305 70.7317 360.854ZM63.0488 346.659H69.2683V351.415C67.3659 351.488 65.5366 351.78 63.7439 352.293C63.3415 350.573 63.122 348.671 63.0488 346.659ZM69.2683 352.878V360.817C67.1098 360.305 65.2073 357.561 64.1098 353.683C65.7561 353.244 67.5122 352.951 69.2683 352.878ZM69.2683 331V338.976C67.5122 338.902 65.7561 338.646 64.0732 338.171C65.2073 334.293 67.1098 331.512 69.2683 331ZM76.9512 345.195H70.7317V340.439C72.6341 340.366 74.4634 340.073 76.2561 339.561C76.6585 341.28 76.878 343.183 76.9512 345.195ZM75.8902 338.134C74.2439 338.61 72.4878 338.902 70.7317 338.976V331C72.8902 331.512 74.7927 334.293 75.8902 338.134ZM63.7439 339.561C65.5366 340.073 67.3659 340.366 69.2683 340.439V345.195H63.0488C63.122 343.183 63.3415 341.28 63.7439 339.561ZM76.2561 352.293C74.4634 351.78 72.5976 351.488 70.7317 351.415V346.659H76.9512C76.878 348.671 76.6585 350.537 76.2561 352.293Z" fill="url(#paint3_linear_46_172)"/>
<path d="M52.1697 363.727V371H50.6321V363.727H52.1697ZM54.9192 367.847V371H53.4064V365.545H54.8482V366.508H54.9121C55.0328 366.191 55.2353 365.94 55.5194 365.755C55.8034 365.568 56.1479 365.474 56.5527 365.474C56.9315 365.474 57.2618 365.557 57.5435 365.723C57.8252 365.889 58.0442 366.125 58.2005 366.433C58.3567 366.739 58.4348 367.103 58.4348 367.527V371H56.9221V367.797C56.9244 367.463 56.8392 367.203 56.6664 367.016C56.4935 366.826 56.2556 366.732 55.9526 366.732C55.749 366.732 55.5691 366.775 55.4128 366.863C55.2589 366.951 55.1382 367.078 55.0506 367.246C54.9654 367.412 54.9216 367.612 54.9192 367.847ZM62.5284 365.545V366.682H59.2436V365.545H62.5284ZM59.9893 364.239H61.5021V369.324C61.5021 369.464 61.5234 369.572 61.5661 369.651C61.6087 369.726 61.6679 369.78 61.7436 369.81C61.8217 369.841 61.9117 369.857 62.0135 369.857C62.0845 369.857 62.1555 369.851 62.2266 369.839C62.2976 369.825 62.352 369.814 62.3899 369.807L62.6278 370.933C62.5521 370.956 62.4455 370.983 62.3082 371.014C62.1709 371.047 62.004 371.067 61.8075 371.075C61.4429 371.089 61.1233 371.04 60.8487 370.929C60.5765 370.818 60.3646 370.645 60.2131 370.411C60.0616 370.176 59.987 369.88 59.9893 369.523V364.239ZM65.9411 371.107C65.38 371.107 64.897 370.993 64.4922 370.766C64.0897 370.536 63.7796 370.212 63.5618 369.793C63.344 369.371 63.2351 368.873 63.2351 368.298C63.2351 367.737 63.344 367.244 63.5618 366.82C63.7796 366.397 64.0862 366.066 64.4815 365.83C64.8793 365.593 65.3456 365.474 65.8807 365.474C66.2405 365.474 66.5755 365.532 66.8857 365.648C67.1982 365.762 67.4704 365.934 67.7024 366.163C67.9368 366.393 68.1191 366.682 68.2493 367.03C68.3795 367.375 68.4446 367.78 68.4446 368.244V368.66H63.8388V367.722H67.0206C67.0206 367.504 66.9732 367.312 66.8786 367.143C66.7839 366.975 66.6525 366.844 66.4844 366.749C66.3187 366.652 66.1257 366.604 65.9055 366.604C65.6759 366.604 65.4723 366.657 65.2947 366.763C65.1196 366.868 64.9822 367.009 64.8828 367.186C64.7834 367.361 64.7325 367.557 64.7301 367.772V368.663C64.7301 368.933 64.7798 369.166 64.8793 369.363C64.9811 369.559 65.1243 369.711 65.3089 369.817C65.4936 369.924 65.7126 369.977 65.9659 369.977C66.134 369.977 66.2879 369.954 66.4276 369.906C66.5672 369.859 66.6868 369.788 66.7862 369.693C66.8857 369.598 66.9614 369.482 67.0135 369.345L68.4126 369.438C68.3416 369.774 68.196 370.067 67.9759 370.318C67.758 370.567 67.4763 370.761 67.1307 370.901C66.7874 371.038 66.3909 371.107 65.9411 371.107ZM69.4318 371V365.545H70.8984V366.497H70.9553C71.0547 366.159 71.2216 365.903 71.456 365.73C71.6903 365.555 71.9602 365.467 72.2656 365.467C72.3414 365.467 72.4231 365.472 72.5107 365.482C72.5982 365.491 72.6752 365.504 72.7415 365.521V366.863C72.6705 366.842 72.5722 366.823 72.4467 366.806C72.3213 366.79 72.2064 366.781 72.1023 366.781C71.8797 366.781 71.6809 366.83 71.5057 366.927C71.3329 367.022 71.1955 367.154 71.0938 367.325C70.9943 367.495 70.9446 367.692 70.9446 367.914V371H69.4318ZM75.0364 367.847V371H73.5236V365.545H74.9654V366.508H75.0293C75.15 366.191 75.3525 365.94 75.6365 365.755C75.9206 365.568 76.2651 365.474 76.6699 365.474C77.0487 365.474 77.379 365.557 77.6607 365.723C77.9424 365.889 78.1614 366.125 78.3176 366.433C78.4739 366.739 78.552 367.103 78.552 367.527V371H77.0392V367.797C77.0416 367.463 76.9564 367.203 76.7836 367.016C76.6107 366.826 76.3728 366.732 76.0698 366.732C75.8662 366.732 75.6863 366.775 75.53 366.863C75.3761 366.951 75.2554 367.078 75.1678 367.246C75.0826 367.412 75.0388 367.612 75.0364 367.847ZM82.2301 371.107C81.669 371.107 81.1861 370.993 80.7812 370.766C80.3788 370.536 80.0687 370.212 79.8509 369.793C79.633 369.371 79.5241 368.873 79.5241 368.298C79.5241 367.737 79.633 367.244 79.8509 366.82C80.0687 366.397 80.3752 366.066 80.7706 365.83C81.1683 365.593 81.6347 365.474 82.1697 365.474C82.5296 365.474 82.8646 365.532 83.1747 365.648C83.4872 365.762 83.7595 365.934 83.9915 366.163C84.2259 366.393 84.4081 366.682 84.5384 367.03C84.6686 367.375 84.7337 367.78 84.7337 368.244V368.66H80.1278V367.722H83.3097C83.3097 367.504 83.2623 367.312 83.1676 367.143C83.0729 366.975 82.9415 366.844 82.7734 366.749C82.6077 366.652 82.4148 366.604 82.1946 366.604C81.965 366.604 81.7614 366.657 81.5838 366.763C81.4086 366.868 81.2713 367.009 81.1719 367.186C81.0724 367.361 81.0215 367.557 81.0192 367.772V368.663C81.0192 368.933 81.0689 369.166 81.1683 369.363C81.2701 369.559 81.4134 369.711 81.598 369.817C81.7827 369.924 82.0017 369.977 82.255 369.977C82.4231 369.977 82.5769 369.954 82.7166 369.906C82.8563 369.859 82.9759 369.788 83.0753 369.693C83.1747 369.598 83.2505 369.482 83.3026 369.345L84.7017 369.438C84.6307 369.774 84.4851 370.067 84.2649 370.318C84.0471 370.567 83.7654 370.761 83.4197 370.901C83.0765 371.038 82.6799 371.107 82.2301 371.107ZM88.6222 365.545V366.682H85.3374V365.545H88.6222ZM86.0831 364.239H87.5959V369.324C87.5959 369.464 87.6172 369.572 87.6598 369.651C87.7024 369.726 87.7616 369.78 87.8374 369.81C87.9155 369.841 88.0054 369.857 88.1072 369.857C88.1783 369.857 88.2493 369.851 88.3203 369.839C88.3913 369.825 88.4458 369.814 88.4837 369.807L88.7216 370.933C88.6458 370.956 88.5393 370.983 88.402 371.014C88.2647 371.047 88.0978 371.067 87.9013 371.075C87.5367 371.089 87.2171 371.04 86.9425 370.929C86.6702 370.818 86.4583 370.645 86.3068 370.411C86.1553 370.176 86.0807 369.88 86.0831 369.523V364.239Z" fill="white"/>
<path d="M87.8563 443.144C92.9067 448.194 101.094 448.194 106.144 443.144C111.194 438.093 111.194 429.907 106.144 424.856C101.094 419.806 92.9067 419.806 87.8563 424.856C82.807 429.907 82.807 438.093 87.8563 443.144ZM93.5925 425.958L95.5167 427.882C95.9015 428.267 95.9832 428.862 95.7163 429.337L94.9932 430.62C94.9064 430.774 94.8724 430.952 94.8965 431.128C94.9206 431.303 95.0015 431.465 95.1267 431.59L99.4105 435.873C99.5353 435.999 99.6977 436.079 99.8728 436.103C100.048 436.127 100.226 436.093 100.38 436.006L101.664 435.283C101.895 435.153 102.162 435.102 102.424 435.138C102.687 435.174 102.931 435.295 103.118 435.482L105.043 437.408C105.271 437.636 105.398 437.944 105.398 438.266C105.398 438.588 105.271 438.897 105.043 439.125L104.132 440.036C103.626 440.541 102.968 440.864 102.26 440.956C101.552 441.048 100.833 440.904 100.215 440.546L100.128 440.497C96.3516 438.339 93.1926 435.246 90.9546 431.516L90.517 430.786C90.1451 430.167 89.9908 429.442 90.0787 428.725C90.1666 428.008 90.4917 427.342 91.0022 426.831L91.8753 425.958C91.988 425.845 92.1218 425.756 92.2692 425.694C92.4165 425.633 92.5744 425.602 92.7339 425.602C92.8934 425.602 93.0513 425.633 93.1987 425.694C93.346 425.756 93.4798 425.845 93.5925 425.958Z" fill="#0B8F9F"/>
<path d="M81.6321 459V451.727H84.5014C85.053 451.727 85.523 451.833 85.9112 452.043C86.2995 452.252 86.5954 452.542 86.799 452.913C87.005 453.283 87.108 453.709 87.108 454.192C87.108 454.675 87.0038 455.101 86.7955 455.47C86.5871 455.839 86.2853 456.127 85.8899 456.333C85.4969 456.539 85.0211 456.642 84.4624 456.642H82.6335V455.41H84.2138C84.5097 455.41 84.7536 455.359 84.9453 455.257C85.1394 455.153 85.2839 455.01 85.3786 454.827C85.4756 454.643 85.5241 454.431 85.5241 454.192C85.5241 453.95 85.4756 453.74 85.3786 453.56C85.2839 453.377 85.1394 453.237 84.9453 453.137C84.7512 453.035 84.505 452.984 84.2067 452.984H83.1697V459H81.6321ZM89.5911 455.847V459H88.0783V451.727H89.5485V454.508H89.6124C89.7355 454.186 89.9344 453.934 90.209 453.751C90.4836 453.567 90.8281 453.474 91.2424 453.474C91.6212 453.474 91.9514 453.557 92.2331 453.723C92.5172 453.886 92.7374 454.122 92.8936 454.43C93.0523 454.735 93.1304 455.101 93.128 455.527V459H91.6152V455.797C91.6176 455.461 91.5324 455.199 91.3596 455.012C91.1891 454.825 90.95 454.732 90.6422 454.732C90.4363 454.732 90.254 454.775 90.0953 454.863C89.9391 454.951 89.816 455.078 89.726 455.246C89.6384 455.412 89.5935 455.612 89.5911 455.847ZM96.783 459.107C96.2314 459.107 95.7544 458.989 95.3519 458.755C94.9518 458.518 94.6429 458.189 94.4251 457.768C94.2073 457.344 94.0984 456.853 94.0984 456.294C94.0984 455.731 94.2073 455.238 94.4251 454.817C94.6429 454.393 94.9518 454.064 95.3519 453.83C95.7544 453.593 96.2314 453.474 96.783 453.474C97.3346 453.474 97.8105 453.593 98.2106 453.83C98.613 454.064 98.9232 454.393 99.141 454.817C99.3588 455.238 99.4677 455.731 99.4677 456.294C99.4677 456.853 99.3588 457.344 99.141 457.768C98.9232 458.189 98.613 458.518 98.2106 458.755C97.8105 458.989 97.3346 459.107 96.783 459.107ZM96.7901 457.935C97.0411 457.935 97.2506 457.864 97.4187 457.722C97.5868 457.577 97.7134 457.381 97.7987 457.132C97.8862 456.884 97.93 456.601 97.93 456.283C97.93 455.966 97.8862 455.683 97.7987 455.435C97.7134 455.186 97.5868 454.99 97.4187 454.845C97.2506 454.701 97.0411 454.629 96.7901 454.629C96.5368 454.629 96.3237 454.701 96.1509 454.845C95.9805 454.99 95.8514 455.186 95.7638 455.435C95.6786 455.683 95.636 455.966 95.636 456.283C95.636 456.601 95.6786 456.884 95.7638 457.132C95.8514 457.381 95.9805 457.577 96.1509 457.722C96.3237 457.864 96.5368 457.935 96.7901 457.935ZM101.964 455.847V459H100.451V453.545H101.893V454.508H101.957C102.078 454.191 102.28 453.94 102.564 453.755C102.848 453.568 103.193 453.474 103.598 453.474C103.976 453.474 104.307 453.557 104.588 453.723C104.87 453.889 105.089 454.125 105.245 454.433C105.402 454.739 105.48 455.103 105.48 455.527V459H103.967V455.797C103.969 455.463 103.884 455.203 103.711 455.016C103.538 454.826 103.301 454.732 102.998 454.732C102.794 454.732 102.614 454.775 102.458 454.863C102.304 454.951 102.183 455.078 102.096 455.246C102.01 455.412 101.967 455.612 101.964 455.847ZM109.158 459.107C108.597 459.107 108.114 458.993 107.709 458.766C107.307 458.536 106.996 458.212 106.779 457.793C106.561 457.371 106.452 456.873 106.452 456.298C106.452 455.737 106.561 455.244 106.779 454.82C106.996 454.397 107.303 454.066 107.698 453.83C108.096 453.593 108.562 453.474 109.097 453.474C109.457 453.474 109.792 453.532 110.102 453.648C110.415 453.762 110.687 453.934 110.919 454.163C111.154 454.393 111.336 454.682 111.466 455.03C111.596 455.375 111.661 455.78 111.661 456.244V456.66H107.056V455.722H110.237C110.237 455.504 110.19 455.312 110.095 455.143C110.001 454.975 109.869 454.844 109.701 454.749C109.535 454.652 109.343 454.604 109.122 454.604C108.893 454.604 108.689 454.657 108.512 454.763C108.336 454.868 108.199 455.009 108.1 455.186C108 455.361 107.949 455.557 107.947 455.772V456.663C107.947 456.933 107.997 457.166 108.096 457.363C108.198 457.559 108.341 457.711 108.526 457.817C108.71 457.924 108.929 457.977 109.183 457.977C109.351 457.977 109.505 457.954 109.644 457.906C109.784 457.859 109.904 457.788 110.003 457.693C110.102 457.598 110.178 457.482 110.23 457.345L111.629 457.438C111.558 457.774 111.413 458.067 111.193 458.318C110.975 458.567 110.693 458.761 110.347 458.901C110.004 459.038 109.608 459.107 109.158 459.107Z" fill="white"/>
<path opacity="0.4" d="M75.0941 510.5H79.3265C81.0793 510.5 82.4997 511.932 82.4997 513.7V517.968C82.4997 519.736 81.0793 521.168 79.3265 521.168H75.0941C73.3412 521.168 71.9209 519.736 71.9209 517.968V513.7C71.9209 511.932 73.3412 510.5 75.0941 510.5Z" fill="#0B8F9F"/>
<path d="M64.9056 524.832C66.6584 524.832 68.0788 526.264 68.0788 528.032V532.3C68.0788 534.066 66.6584 535.5 64.9056 535.5H60.6732C58.9203 535.5 57.5 534.066 57.5 532.3V528.032C57.5 526.264 58.9203 524.832 60.6732 524.832H64.9056ZM79.3268 524.832C81.0797 524.832 82.5 526.264 82.5 528.032V532.3C82.5 534.066 81.0797 535.5 79.3268 535.5H75.0944C73.3415 535.5 71.9212 534.066 71.9212 532.3V528.032C71.9212 526.264 73.3415 524.832 75.0944 524.832H79.3268ZM64.9056 510.5C66.6584 510.5 68.0788 511.932 68.0788 513.7V517.968C68.0788 519.736 66.6584 521.168 64.9056 521.168H60.6732C58.9203 521.168 57.5 519.736 57.5 517.968V513.7C57.5 511.932 58.9203 510.5 60.6732 510.5H64.9056Z" fill="#0B8F9F"/>
<path d="M50.049 543.273H48.4936C48.4652 543.072 48.4072 542.893 48.3196 542.737C48.232 542.579 48.1196 542.444 47.9822 542.332C47.8449 542.221 47.6863 542.136 47.5064 542.077C47.3288 542.018 47.1359 541.988 46.9276 541.988C46.5511 541.988 46.2232 542.081 45.9439 542.268C45.6645 542.453 45.4479 542.723 45.294 543.078C45.1402 543.431 45.0632 543.859 45.0632 544.364C45.0632 544.882 45.1402 545.318 45.294 545.67C45.4503 546.023 45.6681 546.29 45.9474 546.469C46.2268 546.649 46.55 546.739 46.9169 546.739C47.1229 546.739 47.3134 546.712 47.4886 546.658C47.6662 546.603 47.8236 546.524 47.9609 546.42C48.0982 546.313 48.2119 546.184 48.3018 546.033C48.3942 545.881 48.4581 545.708 48.4936 545.514L50.049 545.521C50.0088 545.855 49.9081 546.177 49.7472 546.487C49.5885 546.795 49.3743 547.071 49.1044 547.315C48.8369 547.556 48.5173 547.748 48.1456 547.89C47.7763 548.03 47.3584 548.099 46.892 548.099C46.2434 548.099 45.6634 547.953 45.152 547.659C44.643 547.366 44.2405 546.941 43.9446 546.384C43.651 545.828 43.5043 545.154 43.5043 544.364C43.5043 543.571 43.6534 542.896 43.9517 542.339C44.25 541.783 44.6548 541.359 45.1662 541.068C45.6776 540.775 46.2528 540.628 46.892 540.628C47.3134 540.628 47.7041 540.687 48.0639 540.805C48.4261 540.924 48.7469 541.097 49.0263 541.324C49.3056 541.549 49.5329 541.825 49.7081 542.151C49.8857 542.478 49.9993 542.852 50.049 543.273ZM52.6786 548.103C52.3306 548.103 52.0205 548.043 51.7482 547.922C51.476 547.799 51.2605 547.618 51.1019 547.379C50.9457 547.137 50.8675 546.836 50.8675 546.477C50.8675 546.174 50.9232 545.919 51.0344 545.713C51.1457 545.507 51.2972 545.341 51.489 545.216C51.6808 545.09 51.8986 544.996 52.1424 544.932C52.3886 544.868 52.6467 544.823 52.9165 544.797C53.2338 544.764 53.4895 544.733 53.6836 544.705C53.8777 544.674 54.0186 544.629 54.1062 544.57C54.1938 544.51 54.2376 544.423 54.2376 544.307V544.286C54.2376 544.061 54.1665 543.887 54.0245 543.763C53.8848 543.64 53.686 543.579 53.4279 543.579C53.1557 543.579 52.939 543.639 52.7781 543.76C52.6171 543.878 52.5105 544.027 52.4585 544.207L51.0593 544.094C51.1303 543.762 51.27 543.476 51.4783 543.234C51.6867 542.991 51.9554 542.804 52.2844 542.673C52.6159 542.541 52.9994 542.474 53.435 542.474C53.738 542.474 54.0281 542.51 54.305 542.581C54.5844 542.652 54.8318 542.762 55.0472 542.911C55.265 543.06 55.4367 543.252 55.5621 543.487C55.6876 543.719 55.7504 543.997 55.7504 544.321V548H54.3157V547.244H54.2731C54.1855 547.414 54.0683 547.564 53.9215 547.695C53.7747 547.822 53.5984 547.923 53.3924 547.996C53.1864 548.067 52.9485 548.103 52.6786 548.103ZM53.1119 547.059C53.3344 547.059 53.5309 547.015 53.7013 546.928C53.8718 546.838 54.0056 546.717 54.1026 546.565C54.1997 546.414 54.2482 546.242 54.2482 546.05V545.472C54.2009 545.502 54.1358 545.531 54.0529 545.557C53.9724 545.58 53.8813 545.603 53.7795 545.624C53.6777 545.643 53.5759 545.661 53.4741 545.678C53.3723 545.692 53.2799 545.705 53.1971 545.717C53.0195 545.743 52.8645 545.784 52.7319 545.841C52.5993 545.898 52.4963 545.975 52.4229 546.072C52.3496 546.166 52.3129 546.285 52.3129 546.427C52.3129 546.633 52.3874 546.79 52.5366 546.899C52.6881 547.006 52.8799 547.059 53.1119 547.059ZM59.8253 542.545V543.682H56.5405V542.545H59.8253ZM57.2862 541.239H58.799V546.324C58.799 546.464 58.8203 546.572 58.8629 546.651C58.9055 546.726 58.9647 546.78 59.0405 546.81C59.1186 546.841 59.2086 546.857 59.3104 546.857C59.3814 546.857 59.4524 546.851 59.5234 546.839C59.5945 546.825 59.6489 546.814 59.6868 546.807L59.9247 547.933C59.849 547.956 59.7424 547.983 59.6051 548.014C59.4678 548.047 59.3009 548.067 59.1044 548.075C58.7398 548.089 58.4202 548.04 58.1456 547.929C57.8733 547.818 57.6615 547.645 57.5099 547.411C57.3584 547.176 57.2839 546.88 57.2862 546.523V541.239ZM63.2379 548.107C62.6768 548.107 62.1939 547.993 61.7891 547.766C61.3866 547.536 61.0765 547.212 60.8587 546.793C60.6409 546.371 60.532 545.873 60.532 545.298C60.532 544.737 60.6409 544.244 60.8587 543.82C61.0765 543.397 61.383 543.066 61.7784 542.83C62.1761 542.593 62.6425 542.474 63.1776 542.474C63.5374 542.474 63.8724 542.532 64.1825 542.648C64.495 542.762 64.7673 542.934 64.9993 543.163C65.2337 543.393 65.416 543.682 65.5462 544.03C65.6764 544.375 65.7415 544.78 65.7415 545.244V545.66H61.1357V544.722H64.3175C64.3175 544.504 64.2701 544.312 64.1754 544.143C64.0807 543.975 63.9493 543.844 63.7812 543.749C63.6155 543.652 63.4226 543.604 63.2024 543.604C62.9728 543.604 62.7692 543.657 62.5916 543.763C62.4164 543.868 62.2791 544.009 62.1797 544.186C62.0803 544.361 62.0294 544.557 62.027 544.772V545.663C62.027 545.933 62.0767 546.166 62.1761 546.363C62.2779 546.559 62.4212 546.711 62.6058 546.817C62.7905 546.924 63.0095 546.977 63.2628 546.977C63.4309 546.977 63.5848 546.954 63.7244 546.906C63.8641 546.859 63.9837 546.788 64.0831 546.693C64.1825 546.598 64.2583 546.482 64.3104 546.345L65.7095 546.438C65.6385 546.774 65.4929 547.067 65.2727 547.318C65.0549 547.567 64.7732 547.761 64.4276 547.901C64.0843 548.038 63.6877 548.107 63.2379 548.107ZM69.1861 550.159C68.696 550.159 68.2758 550.092 67.9254 549.957C67.5774 549.824 67.3004 549.643 67.0945 549.413C66.8885 549.184 66.7547 548.926 66.6932 548.639L68.0923 548.451C68.1349 548.56 68.2024 548.662 68.2947 548.756C68.3871 548.851 68.509 548.927 68.6605 548.984C68.8144 549.043 69.0014 549.072 69.2216 549.072C69.5507 549.072 69.8217 548.992 70.0348 548.831C70.2502 548.672 70.358 548.406 70.358 548.032V547.034H70.294C70.2277 547.186 70.1283 547.329 69.9957 547.464C69.8632 547.599 69.6927 547.709 69.4844 547.794C69.276 547.879 69.0275 547.922 68.7386 547.922C68.3291 547.922 67.9562 547.827 67.62 547.638C67.2862 547.446 67.0199 547.154 66.821 546.761C66.6245 546.365 66.5263 545.866 66.5263 545.262C66.5263 544.644 66.6269 544.128 66.8281 543.714C67.0294 543.299 67.2969 542.989 67.6307 542.783C67.9669 542.577 68.335 542.474 68.7351 542.474C69.0405 542.474 69.2962 542.527 69.5021 542.631C69.7081 542.732 69.8738 542.86 69.9993 543.014C70.1271 543.166 70.2254 543.315 70.294 543.462H70.3509V542.545H71.853V548.053C71.853 548.517 71.7393 548.906 71.5121 549.218C71.2848 549.531 70.9699 549.765 70.5675 549.921C70.1674 550.08 69.7069 550.159 69.1861 550.159ZM69.218 546.786C69.4619 546.786 69.6679 546.725 69.8359 546.604C70.0064 546.481 70.1366 546.306 70.2266 546.079C70.3189 545.849 70.3651 545.575 70.3651 545.255C70.3651 544.935 70.3201 544.658 70.2301 544.424C70.1402 544.187 70.0099 544.004 69.8395 543.874C69.669 543.743 69.4619 543.678 69.218 543.678C68.9695 543.678 68.7599 543.746 68.5895 543.881C68.419 544.013 68.29 544.198 68.2024 544.435C68.1148 544.671 68.071 544.945 68.071 545.255C68.071 545.57 68.1148 545.842 68.2024 546.072C68.2924 546.299 68.4214 546.475 68.5895 546.601C68.7599 546.724 68.9695 546.786 69.218 546.786ZM75.5213 548.107C74.9697 548.107 74.4927 547.989 74.0902 547.755C73.6901 547.518 73.3812 547.189 73.1634 546.768C72.9455 546.344 72.8366 545.853 72.8366 545.294C72.8366 544.731 72.9455 544.238 73.1634 543.817C73.3812 543.393 73.6901 543.064 74.0902 542.83C74.4927 542.593 74.9697 542.474 75.5213 542.474C76.0729 542.474 76.5488 542.593 76.9489 542.83C77.3513 543.064 77.6615 543.393 77.8793 543.817C78.0971 544.238 78.206 544.731 78.206 545.294C78.206 545.853 78.0971 546.344 77.8793 546.768C77.6615 547.189 77.3513 547.518 76.9489 547.755C76.5488 547.989 76.0729 548.107 75.5213 548.107ZM75.5284 546.935C75.7794 546.935 75.9889 546.864 76.157 546.722C76.325 546.577 76.4517 546.381 76.5369 546.132C76.6245 545.884 76.6683 545.601 76.6683 545.283C76.6683 544.966 76.6245 544.683 76.5369 544.435C76.4517 544.186 76.325 543.99 76.157 543.845C75.9889 543.701 75.7794 543.629 75.5284 543.629C75.2751 543.629 75.062 543.701 74.8892 543.845C74.7188 543.99 74.5897 544.186 74.5021 544.435C74.4169 544.683 74.3743 544.966 74.3743 545.283C74.3743 545.601 74.4169 545.884 74.5021 546.132C74.5897 546.381 74.7188 546.577 74.8892 546.722C75.062 546.864 75.2751 546.935 75.5284 546.935ZM79.1896 548V542.545H80.6562V543.497H80.7131C80.8125 543.159 80.9794 542.903 81.2138 542.73C81.4482 542.555 81.718 542.467 82.0234 542.467C82.0992 542.467 82.1809 542.472 82.2685 542.482C82.3561 542.491 82.433 542.504 82.4993 542.521V543.863C82.4283 543.842 82.33 543.823 82.2045 543.806C82.0791 543.79 81.9643 543.781 81.8601 543.781C81.6375 543.781 81.4387 543.83 81.2635 543.927C81.0907 544.022 80.9534 544.154 80.8516 544.325C80.7521 544.495 80.7024 544.692 80.7024 544.914V548H79.1896ZM83.2814 548V542.545H84.7942V548H83.2814ZM84.0414 541.842C83.8165 541.842 83.6235 541.768 83.4625 541.619C83.3039 541.467 83.2246 541.286 83.2246 541.075C83.2246 540.867 83.3039 540.688 83.4625 540.539C83.6235 540.388 83.8165 540.312 84.0414 540.312C84.2663 540.312 84.458 540.388 84.6167 540.539C84.7776 540.688 84.8581 540.867 84.8581 541.075C84.8581 541.286 84.7776 541.467 84.6167 541.619C84.458 541.768 84.2663 541.842 84.0414 541.842ZM88.4918 548.107C87.9308 548.107 87.4478 547.993 87.043 547.766C86.6405 547.536 86.3304 547.212 86.1126 546.793C85.8948 546.371 85.7859 545.873 85.7859 545.298C85.7859 544.737 85.8948 544.244 86.1126 543.82C86.3304 543.397 86.637 543.066 87.0323 542.83C87.43 542.593 87.8964 542.474 88.4315 542.474C88.7913 542.474 89.1263 542.532 89.4364 542.648C89.7489 542.762 90.0212 542.934 90.2532 543.163C90.4876 543.393 90.6699 543.682 90.8001 544.03C90.9303 544.375 90.9954 544.78 90.9954 545.244V545.66H86.3896V544.722H89.5714C89.5714 544.504 89.524 544.312 89.4293 544.143C89.3346 543.975 89.2032 543.844 89.0352 543.749C88.8694 543.652 88.6765 543.604 88.4563 543.604C88.2267 543.604 88.0231 543.657 87.8455 543.763C87.6703 543.868 87.533 544.009 87.4336 544.186C87.3342 544.361 87.2833 544.557 87.2809 544.772V545.663C87.2809 545.933 87.3306 546.166 87.43 546.363C87.5318 546.559 87.6751 546.711 87.8597 546.817C88.0444 546.924 88.2634 546.977 88.5167 546.977C88.6848 546.977 88.8387 546.954 88.9783 546.906C89.118 546.859 89.2376 546.788 89.337 546.693C89.4364 546.598 89.5122 546.482 89.5643 546.345L90.9634 546.438C90.8924 546.774 90.7468 547.067 90.5266 547.318C90.3088 547.567 90.0271 547.761 89.6815 547.901C89.3382 548.038 88.9416 548.107 88.4918 548.107ZM96.521 544.101L95.136 544.186C95.1123 544.068 95.0614 543.961 94.9833 543.866C94.9052 543.769 94.8022 543.692 94.6744 543.636C94.5489 543.576 94.3986 543.547 94.2234 543.547C93.989 543.547 93.7913 543.597 93.6303 543.696C93.4693 543.793 93.3888 543.923 93.3888 544.087C93.3888 544.217 93.4409 544.327 93.5451 544.417C93.6493 544.507 93.828 544.579 94.0813 544.634L95.0685 544.832C95.5988 544.941 95.9942 545.116 96.2546 545.358C96.515 545.599 96.6452 545.917 96.6452 546.31C96.6452 546.667 96.5399 546.981 96.3292 547.251C96.1209 547.521 95.8344 547.731 95.4698 547.883C95.1076 548.032 94.6897 548.107 94.2163 548.107C93.4942 548.107 92.9189 547.956 92.4904 547.656C92.0643 547.353 91.8145 546.941 91.7411 546.42L93.229 546.342C93.274 546.562 93.3829 546.73 93.5558 546.846C93.7286 546.96 93.9499 547.016 94.2198 547.016C94.485 547.016 94.698 546.965 94.859 546.864C95.0224 546.759 95.1052 546.626 95.1076 546.462C95.1052 546.325 95.0472 546.213 94.9336 546.125C94.82 546.035 94.6448 545.966 94.408 545.919L93.4634 545.731C92.9308 545.624 92.5342 545.44 92.2738 545.177C92.0157 544.914 91.8867 544.579 91.8867 544.172C91.8867 543.821 91.9814 543.52 92.1708 543.266C92.3626 543.013 92.6313 542.818 92.9769 542.68C93.3249 542.543 93.7321 542.474 94.1985 542.474C94.8874 542.474 95.4296 542.62 95.8249 542.911C96.2227 543.202 96.4547 543.599 96.521 544.101Z" fill="white"/>
<path d="M81.184 603.504L73.984 601.061H73.9C73.8441 601.056 73.7879 601.056 73.732 601.061H73.456H73.3H73.216L66.4 603.443L59.584 601.061C59.4035 601.001 59.2115 600.985 59.0238 601.015C58.836 601.044 58.6579 601.119 58.504 601.232C58.3489 601.345 58.2223 601.493 58.1347 601.665C58.047 601.837 58.0009 602.028 58 602.222V619.322C57.9994 619.578 58.0778 619.828 58.2242 620.037C58.3706 620.245 58.5777 620.401 58.816 620.483L66.016 622.926C66.2577 623.006 66.5183 623.006 66.76 622.926L73.6 620.605L80.416 622.987C80.5434 623.004 80.6726 623.004 80.8 622.987C81.0509 622.99 81.2958 622.909 81.496 622.755C81.6511 622.642 81.7777 622.494 81.8653 622.322C81.953 622.15 81.9991 621.959 82 621.765V604.665C82.0006 604.409 81.9222 604.159 81.7758 603.951C81.6294 603.742 81.4223 603.586 81.184 603.504ZM65.2 620.067L60.4 618.443V603.92L65.2 605.544V620.067ZM72.4 618.443L67.6 620.067V605.544L72.4 603.92V618.443ZM79.6 620.067L74.8 618.443V603.92L79.6 605.544V620.067Z" fill="#0B8F9F"/>
<path d="M60.6321 626.727H62.5284L64.5312 631.614H64.6165L66.6193 626.727H68.5156V634H67.0241V629.266H66.9638L65.0817 633.964H64.0661L62.1839 629.249H62.1236V634H60.6321V626.727ZM71.3095 634.103C70.9615 634.103 70.6513 634.043 70.3791 633.922C70.1068 633.799 69.8914 633.618 69.7328 633.379C69.5765 633.137 69.4984 632.836 69.4984 632.477C69.4984 632.174 69.554 631.919 69.6653 631.713C69.7766 631.507 69.9281 631.341 70.1199 631.216C70.3116 631.09 70.5294 630.996 70.7733 630.932C71.0195 630.868 71.2775 630.823 71.5474 630.797C71.8646 630.764 72.1203 630.733 72.3145 630.705C72.5086 630.674 72.6494 630.629 72.737 630.57C72.8246 630.51 72.8684 630.423 72.8684 630.307V630.286C72.8684 630.061 72.7974 629.887 72.6554 629.763C72.5157 629.64 72.3168 629.579 72.0588 629.579C71.7865 629.579 71.5699 629.639 71.4089 629.76C71.2479 629.878 71.1414 630.027 71.0893 630.207L69.6902 630.094C69.7612 629.762 69.9009 629.476 70.1092 629.234C70.3175 628.991 70.5862 628.804 70.9153 628.673C71.2467 628.541 71.6303 628.474 72.0659 628.474C72.3689 628.474 72.6589 628.51 72.9359 628.581C73.2153 628.652 73.4627 628.762 73.6781 628.911C73.8959 629.06 74.0675 629.252 74.193 629.487C74.3185 629.719 74.3812 629.997 74.3812 630.321V634H72.9466V633.244H72.9039C72.8163 633.414 72.6992 633.564 72.5524 633.695C72.4056 633.822 72.2292 633.923 72.0233 633.996C71.8173 634.067 71.5794 634.103 71.3095 634.103ZM71.7427 633.059C71.9653 633.059 72.1618 633.015 72.3322 632.928C72.5027 632.838 72.6364 632.717 72.7335 632.565C72.8306 632.414 72.8791 632.242 72.8791 632.05V631.472C72.8317 631.502 72.7666 631.531 72.6838 631.557C72.6033 631.58 72.5121 631.603 72.4103 631.624C72.3085 631.643 72.2067 631.661 72.1049 631.678C72.0031 631.692 71.9108 631.705 71.8279 631.717C71.6504 631.743 71.4953 631.784 71.3627 631.841C71.2302 631.898 71.1272 631.975 71.0538 632.072C70.9804 632.166 70.9437 632.285 70.9437 632.427C70.9437 632.633 71.0183 632.79 71.1674 632.899C71.319 633.006 71.5107 633.059 71.7427 633.059ZM75.5549 636.045V628.545H77.0463V629.462H77.1138C77.1801 629.315 77.276 629.166 77.4015 629.014C77.5293 628.86 77.695 628.732 77.8986 628.631C78.1046 628.527 78.3603 628.474 78.6657 628.474C79.0634 628.474 79.4303 628.579 79.7665 628.787C80.1027 628.993 80.3714 629.304 80.5726 629.721C80.7739 630.135 80.8745 630.655 80.8745 631.28C80.8745 631.888 80.7762 632.402 80.5797 632.821C80.3856 633.238 80.1204 633.554 79.7843 633.769C79.4505 633.982 79.0764 634.089 78.6621 634.089C78.3685 634.089 78.1188 634.04 77.9128 633.943C77.7092 633.846 77.5423 633.724 77.4121 633.577C77.2819 633.428 77.1825 633.278 77.1138 633.126H77.0676V636.045H75.5549ZM77.0357 631.273C77.0357 631.597 77.0807 631.88 77.1706 632.121C77.2606 632.363 77.3908 632.551 77.5613 632.686C77.7317 632.819 77.9389 632.885 78.1827 632.885C78.4289 632.885 78.6373 632.817 78.8077 632.683C78.9782 632.545 79.1072 632.356 79.1948 632.114C79.2847 631.871 79.3297 631.59 79.3297 631.273C79.3297 630.958 79.2859 630.681 79.1983 630.442C79.1107 630.203 78.9817 630.016 78.8113 629.881C78.6408 629.746 78.4313 629.678 78.1827 629.678C77.9365 629.678 77.7282 629.743 77.5577 629.874C77.3896 630.004 77.2606 630.188 77.1706 630.428C77.0807 630.667 77.0357 630.948 77.0357 631.273Z" fill="white"/>
<rect x="151" y="420" width="538" height="269" rx="16" fill="#010518"/>
<rect x="700" y="420" width="538" height="269" rx="16" fill="#010518"/>
<rect x="151" y="141" width="538" height="269" rx="16" fill="#010518"/>
<rect x="151" y="31" width="204" height="99" rx="16" fill="#010518"/>
<rect x="372" y="31" width="203" height="99" rx="16" fill="#010518"/>
<rect x="593" y="31" width="202" height="99" rx="16" fill="#010518"/>
<rect x="813" y="31" width="204" height="99" rx="16" fill="#010518"/>
<rect x="1034" y="31" width="204" height="99" rx="16" fill="#010518"/>
<rect x="700" y="141" width="538" height="269" rx="16" fill="#010518"/>
<g clip-path="url(#clip0_46_172)">
<path d="M43.6846 77.3388C42.3292 76.7385 41.225 76.252 41.225 75.2599C41.225 74.508 41.8597 73.9583 43.1027 73.9583C43.5655 73.9583 43.9358 74.0088 44.3259 74.0784C44.5309 74.1163 44.7424 74.1415 44.9209 74.1415C46.0119 74.1415 46.6268 73.5223 47.0367 72.3407L47.202 71.8605C47.0301 71.7973 45.2515 71.0454 42.9308 71.0454C39.2415 71.0454 37.2977 73.3075 37.2977 75.658C37.2977 76.8396 37.6812 77.6989 38.2894 78.375C39.0696 79.2407 40.187 79.8157 41.2316 80.2959C42.7523 81.0099 44.1209 81.5343 44.1209 82.5959C44.1209 83.531 43.1093 84.0681 41.7539 84.0681C39.8961 84.0681 38.2762 83.0571 38.0646 82.9308L36.5439 85.6604C36.815 85.8121 38.7787 87 42.0118 87C45.4499 87 48.0615 85.1107 48.0615 82.2104C48.0615 79.3039 45.6416 78.2486 43.6846 77.3388Z" fill="#0B8F9F"/>
<path d="M55.761 78.5775L61.9052 71.0454H57.5295L52.6272 77.5442H52.5557V71.0454H48.9473V87H49.1618C50.7222 87 52.5817 86.2786 52.5817 83.6726V80.0137H52.6532L57.6465 86.805H62.2367L55.761 78.5775Z" fill="#0B8F9F"/>
<path d="M60.7071 52.368C59.3803 52.619 57.424 53.8195 57.424 55.9493C57.4307 57.8823 59.008 59.0489 59.008 61.5856C59.0216 63.4915 57.9723 64.7734 56.8418 65.4856C57.2953 65.4449 57.8031 65.4178 58.3514 65.4178C59.509 65.4178 60.2062 65.5263 60.2468 65.5331L66.1836 58.235C64.5319 55.7593 62.6094 53.8399 60.7071 52.368Z" fill="#0B8F9F"/>
<path d="M65.6896 72.0782C66.4343 70.9116 66.529 69.0532 66.5967 67.1608C66.6644 65.3906 67.03 64.068 69.3857 64.0544C69.907 64.0544 70.4011 64.1222 71.3083 64.1222C74.7539 64.1087 77.0081 62.9149 78.4094 62.1349C75.5459 60.3036 71.3692 58.4384 66.1838 58.2281C65.8453 59.1845 63.2188 66.5029 63.0225 67.0998C63.0495 67.1337 63.5099 67.6492 64.0853 68.6598C64.9314 70.0435 65.385 71.2168 65.6896 72.0782Z" fill="#0B8F9F"/>
<path d="M53.1657 66.0892C52.8678 66.0892 52.7189 65.8925 52.6783 65.5466C52.6377 65.2007 51.1619 51.5948 50.9385 49.5329C50.9047 49.2344 50.8302 48.6783 50.8302 48.4816C50.8235 48.1628 51.0333 48 51.277 48C51.981 48 55.8125 48.8953 59.8742 51.7576C58.7031 52.0831 56.5843 53.3108 56.591 55.8407C56.5978 58.079 58.2022 59.3066 58.2089 61.5517C58.2225 65.2075 54.0322 66.0892 53.1657 66.0892Z" fill="#E9F0FF"/>
<path d="M66.0352 73.0482C66.0961 73.2177 66.157 73.3602 66.2179 73.4619C66.3127 73.6179 66.4346 73.6925 66.5835 73.6925C66.6783 73.6925 66.7933 73.6586 66.922 73.5976C67.2333 73.4551 79.6214 67.6696 81.4898 66.8082C81.7606 66.6793 82.275 66.4487 82.4443 66.347C82.6203 66.2452 82.7015 66.1028 82.7015 65.9536C82.7015 65.8722 82.6744 65.784 82.627 65.7094C82.3901 65.3296 81.1987 64.0544 79.1882 62.6572C77.5974 63.539 75.113 64.8955 71.4236 64.9091C70.5165 64.9091 70.3067 64.848 69.6907 64.8548C67.89 64.8616 67.4364 65.6348 67.3687 67.2151C67.362 67.5204 67.3552 67.9205 67.3349 68.3614C67.2807 69.779 67.1115 71.7391 66.0352 73.0482Z" fill="#E9F0FF"/>
<path d="M103.558 79.9091C102.189 79.9091 101.482 80.9116 101.374 81.0682C101.027 80.3372 100.394 79.9091 99.5597 79.9091C98.355 79.9091 97.6706 80.6871 97.5581 80.8176C97.5065 80.6087 97.258 80.0396 96.4799 80.0396C96.2596 80.0396 95.9268 80.1179 95.9033 80.1231C95.9314 80.285 96.0814 81.0787 96.0814 82.1752V87H97.6612V82.0812C97.694 82.0499 98.2893 81.3815 99.0019 81.3815C99.7097 81.3815 100.066 81.9768 100.066 82.7862V87H101.66V82.0812C101.688 82.0499 102.269 81.3815 102.996 81.3815C103.718 81.3815 104.05 81.9768 104.05 82.7862V87H105.649V82.5094C105.649 80.9325 104.847 79.9091 103.554 79.9091H103.558Z" fill="#E9F0FF"/>
<path d="M85.9589 85.6053C84.9094 85.6053 84.1611 84.6755 84.1611 83.4647C84.1611 82.1109 85.0143 81.3088 85.9589 81.3088C86.4699 81.3088 86.6844 81.4825 87.0175 81.4825C87.3779 81.4825 87.5696 81.2833 87.7521 80.895C87.8479 80.6805 87.9072 80.5579 87.9072 80.5579C87.8297 80.5017 87.0494 79.9091 85.7216 79.9091C83.7778 79.9091 82.6143 81.4672 82.6143 83.4596C82.6143 85.6359 83.9466 87 85.7216 87C87.0129 87 87.7932 86.4125 87.93 86.3001L87.3962 85.1148C87.2776 85.2017 86.7254 85.6002 85.9543 85.6002L85.9589 85.6053Z" fill="#E9F0FF"/>
<path fill-rule="evenodd" clip-rule="evenodd" d="M71.0961 83.4187V83.9296H67.2682C67.2947 84.6193 67.692 85.6564 68.8355 85.6564C69.5022 85.6564 69.564 85.4163 70.0585 85.4163C70.3013 85.4163 70.5265 85.5389 70.7208 85.9067C70.7561 85.9782 70.893 86.2337 70.893 86.2337C70.8047 86.295 70.085 87 68.6987 87C66.9503 87 65.7803 85.6666 65.7803 83.4596C65.7803 81.2527 66.9856 79.9091 68.4161 79.9091C70.0453 79.9091 71.0961 81.3037 71.0961 83.4187ZM69.5508 82.7035C69.5375 81.9474 69.1313 81.2067 68.394 81.2067C67.7362 81.2067 67.2637 81.927 67.2637 82.7035H69.5508Z" fill="#E9F0FF"/>
<path d="M73.5725 85.0972V78.5626C73.5725 77.8213 73.0832 77.25 72.3211 77.25H71.9824V85.7346C71.9824 86.5137 72.467 87 73.2996 87C74.3345 87 74.6403 86.2634 74.6403 85.5694C74.598 85.593 74.3816 85.6827 74.1605 85.6827C73.7936 85.6827 73.5725 85.4655 73.5725 85.0972Z" fill="#E9F0FF"/>
<path d="M64.0387 84.5044V80.8634H65.3324L65.7804 79.4523H64.0387V77.25C64.0387 77.25 63.9015 77.25 63.8969 77.25C63.2066 77.25 62.4935 77.6041 62.4935 79.4357V79.4523H61.3506V80.8634H62.4935V85.1518C62.4935 86.3636 63.0878 87 63.9289 87C64.6101 87 65.4878 86.751 65.4878 85.1186C65.433 85.1573 65.1038 85.4119 64.7427 85.4119C64.2398 85.4119 64.0432 85.0411 64.0432 84.5044H64.0387Z" fill="#E9F0FF"/>
<path fill-rule="evenodd" clip-rule="evenodd" d="M81.7283 83.4187V83.9296H76.6245C76.6598 84.6193 77.1896 85.6564 78.7143 85.6564C79.6032 85.6564 79.6856 85.4163 80.3391 85.4163C80.6687 85.4163 80.9689 85.5389 81.228 85.9067C81.2751 85.9782 81.4575 86.2337 81.4575 86.2337C81.3398 86.295 80.3803 87 78.5318 87C76.1947 87 74.6406 85.6666 74.6406 83.4596C74.6406 81.2527 76.2477 79.9091 78.1551 79.9091C80.3273 79.9091 81.7283 81.3037 81.7283 83.4187ZM79.6621 82.7035C79.6503 81.9474 79.1087 81.2067 78.1197 81.2067C77.2426 81.2067 76.6186 81.927 76.6186 82.7035H79.6621Z" fill="#E9F0FF"/>
<path fill-rule="evenodd" clip-rule="evenodd" d="M91.4762 87C89.516 87 87.9297 85.4163 87.9297 83.4545C87.9297 81.4928 89.516 79.9091 91.4762 79.9091C93.4311 79.9091 95.0174 81.4928 95.0174 83.4545C95.0174 85.4163 93.4311 87 91.4762 87ZM93.2174 83.4545C93.2174 82.2284 92.4376 81.2373 91.4762 81.2373C90.5095 81.2373 89.7297 82.2284 89.7297 83.4545C89.7297 84.6806 90.5095 85.6717 91.4762 85.6717C92.4376 85.6717 93.2174 84.6806 93.2174 83.4545Z" fill="#E9F0FF"/>
</g>
<path d="M64.4901 183.656V178.814C64.4901 177.586 65.4879 176.59 66.7238 176.582H71.262C72.5035 176.582 73.5099 177.581 73.5099 178.814V183.642C73.5099 184.706 74.3748 185.571 75.4467 185.579H78.5429C79.9889 185.583 81.377 185.015 82.4008 184.001C83.4246 182.987 84 181.611 84 180.175V166.42C84 165.26 83.4822 164.16 82.5862 163.416L72.0679 155.065C70.2292 153.604 67.6032 153.651 65.819 155.177L55.5269 163.416C54.5885 164.138 54.0277 165.241 54 166.42V180.161C54 183.153 56.4432 185.579 59.4571 185.579H62.4826C62.9987 185.583 63.495 185.382 63.8613 185.021C64.2276 184.66 64.4336 184.168 64.4336 183.656H64.4901Z" fill="url(#paint4_linear_46_172)"/>
<path d="M54.6321 196V188.727H56.1697V191.728H59.2912V188.727H60.8253V196H59.2912V192.996H56.1697V196H54.6321ZM64.5291 196.107C63.9775 196.107 63.5005 195.989 63.098 195.755C62.6979 195.518 62.389 195.189 62.1712 194.768C61.9534 194.344 61.8445 193.853 61.8445 193.294C61.8445 192.731 61.9534 192.238 62.1712 191.817C62.389 191.393 62.6979 191.064 63.098 190.83C63.5005 190.593 63.9775 190.474 64.5291 190.474C65.0807 190.474 65.5566 190.593 65.9567 190.83C66.3591 191.064 66.6693 191.393 66.8871 191.817C67.1049 192.238 67.2138 192.731 67.2138 193.294C67.2138 193.853 67.1049 194.344 66.8871 194.768C66.6693 195.189 66.3591 195.518 65.9567 195.755C65.5566 195.989 65.0807 196.107 64.5291 196.107ZM64.5362 194.935C64.7872 194.935 64.9967 194.864 65.1648 194.722C65.3329 194.577 65.4595 194.381 65.5447 194.132C65.6323 193.884 65.6761 193.601 65.6761 193.283C65.6761 192.966 65.6323 192.683 65.5447 192.435C65.4595 192.186 65.3329 191.99 65.1648 191.845C64.9967 191.701 64.7872 191.629 64.5362 191.629C64.2829 191.629 64.0698 191.701 63.897 191.845C63.7266 191.99 63.5975 192.186 63.5099 192.435C63.4247 192.683 63.3821 192.966 63.3821 193.283C63.3821 193.601 63.4247 193.884 63.5099 194.132C63.5975 194.381 63.7266 194.577 63.897 194.722C64.0698 194.864 64.2829 194.935 64.5362 194.935ZM68.1974 196V190.545H69.6392V191.508H69.7031C69.8168 191.188 70.0062 190.936 70.2713 190.751C70.5365 190.567 70.8537 190.474 71.223 190.474C71.5971 190.474 71.9155 190.568 72.1783 190.755C72.4411 190.94 72.6162 191.191 72.7038 191.508H72.7607C72.8719 191.195 73.0732 190.946 73.3643 190.759C73.6579 190.569 74.0047 190.474 74.4048 190.474C74.9138 190.474 75.3269 190.637 75.6442 190.961C75.9638 191.283 76.1236 191.74 76.1236 192.332V196H74.6143V192.63C74.6143 192.327 74.5339 192.1 74.3729 191.948C74.2119 191.797 74.0107 191.721 73.7692 191.721C73.4946 191.721 73.2803 191.808 73.1264 191.984C72.9725 192.156 72.8956 192.385 72.8956 192.669V196H71.429V192.598C71.429 192.33 71.352 192.117 71.1982 191.959C71.0466 191.8 70.8466 191.721 70.598 191.721C70.4299 191.721 70.2784 191.763 70.1435 191.849C70.0109 191.932 69.9055 192.049 69.8274 192.2C69.7493 192.349 69.7102 192.525 69.7102 192.726V196H68.1974ZM79.8043 196.107C79.2433 196.107 78.7603 195.993 78.3555 195.766C77.953 195.536 77.6429 195.212 77.4251 194.793C77.2073 194.371 77.0984 193.873 77.0984 193.298C77.0984 192.737 77.2073 192.244 77.4251 191.82C77.6429 191.397 77.9495 191.066 78.3448 190.83C78.7425 190.593 79.2089 190.474 79.744 190.474C80.1038 190.474 80.4388 190.532 80.7489 190.648C81.0614 190.762 81.3337 190.934 81.5657 191.163C81.8001 191.393 81.9824 191.682 82.1126 192.03C82.2428 192.375 82.3079 192.78 82.3079 193.244V193.66H77.7021V192.722H80.8839C80.8839 192.504 80.8365 192.312 80.7418 192.143C80.6471 191.975 80.5157 191.844 80.3477 191.749C80.1819 191.652 79.989 191.604 79.7688 191.604C79.5392 191.604 79.3356 191.657 79.158 191.763C78.9828 191.868 78.8455 192.009 78.7461 192.186C78.6467 192.361 78.5958 192.557 78.5934 192.772V193.663C78.5934 193.933 78.6431 194.166 78.7425 194.363C78.8443 194.559 78.9876 194.711 79.1722 194.817C79.3569 194.924 79.5759 194.977 79.8292 194.977C79.9973 194.977 80.1512 194.954 80.2908 194.906C80.4305 194.859 80.5501 194.788 80.6495 194.693C80.7489 194.598 80.8247 194.482 80.8768 194.345L82.2759 194.438C82.2049 194.774 82.0593 195.067 81.8391 195.318C81.6213 195.567 81.3396 195.761 80.994 195.901C80.6507 196.038 80.2541 196.107 79.8043 196.107Z" fill="white"/>
<defs>
<linearGradient id="paint0_linear_46_172" x1="70" y1="251.989" x2="70" y2="269.95" gradientUnits="userSpaceOnUse">
<stop stop-color="#0B8F9F"/>
</linearGradient>
<linearGradient id="paint1_linear_46_172" x1="61.0038" y1="254.986" x2="61.0038" y2="266.956" gradientUnits="userSpaceOnUse">
<stop stop-color="#0B8F9F"/>
</linearGradient>
<linearGradient id="paint2_linear_46_172" x1="79.0141" y1="254.967" x2="79.0141" y2="266.962" gradientUnits="userSpaceOnUse">
<stop stop-color="#0B8F9F"/>
</linearGradient>
<linearGradient id="paint3_linear_46_172" x1="70" y1="331" x2="70" y2="360.854" gradientUnits="userSpaceOnUse">
<stop stop-color="#0B8F9F"/>
</linearGradient>
<linearGradient id="paint4_linear_46_172" x1="69" y1="154" x2="69" y2="185.579" gradientUnits="userSpaceOnUse">
<stop stop-color="#0B8F9F"/>
</linearGradient>
<clipPath id="clip0_46_172">
<rect width="101" height="39" fill="white" transform="translate(33 48)"/>
</clipPath>
</defs>
</svg>
